<svg xmlns="http://www.w3.org/2000/svg" width="64" height="64" id="jeans"><g fill="#333433"><path d="m40.777 12.144-.154-.976-.328-1.656a.52.52 0 0 0-.281-.37.542.542 0 0 0-.467-.009c-.02.011-2.176.968-7.557 1.13v3.235c0 .042-.014.076-.025.114 1.006-.03 6.129-.235 8.793-1.463.006-.004.013-.003.019-.005zm-7.607.654a.774.774 0 1 1 .77-.776.775.775 0 0 1-.77.776zM32.518 22.775c1.703-1.586 1.533-6.433 1.322-8.192a43.68 43.68 0 0 1-1.822.094c.059 1.875.064 6.571-1.172 8.583.672.078 1.226-.075 1.672-.485zM42.197 21.103l-1.248-7.886c-1.014.428-2.271.735-3.539.949l4.787 6.937zM30.943 13.601c-.006-.034-.018-.066-.018-.103v-3.235c-5.387-.162-7.541-1.119-7.561-1.129a.529.529 0 0 0-.747.379l-.447 2.605c.049.008.094.012.137.032 2.445 1.124 7.088 1.394 8.636 1.451zM21.992 13.169l-1.309 7.641 4.701-6.696c-1.236-.22-2.437-.526-3.392-.945z"></path><path d="m43.594 29.889-1.012-6.352-6.268-9.085c-.025-.036-.033-.076-.047-.114-.474.062-.933.114-1.367.156.074.631.725 6.842-1.658 9.06a2.925 2.925 0 0 1-2.066.806c-.17 0-.346-.028-.521-.053l.939 3.017c3.688 7.097 5.313 28.472 5.328 28.691a.53.53 0 0 0 .512.493c.207.007.422.011.642.011 3.672 0 8.348-.982 8.545-1.023a.535.535 0 0 0 .416-.596l-3.443-25.011z"></path><path d="M29.355 23.716a.532.532 0 0 1 .24-.62c1.121-.644 1.455-5.151 1.355-8.428a44.734 44.734 0 0 1-4.393-.372l-6.295 8.967-1.197 7.018-3.445 24.875a.53.53 0 0 0 .443.6c.201.031 4.934.768 8.598.768.281 0 .553-.006.818-.015a.53.53 0 0 0 .51-.493c.016-.211 1.5-19.765 4.855-27.683.029-.068-.162-.359-.213-.512l-1.276-4.105z"></path></g></svg>
